<?xml version="1.0" encoding="utf-8"?>
<!-- Generator: Adobe Illustrator 23.0.2, SVG Export Plug-In . SVG Version: 6.00 Build 0)  -->
<svg version="1.1" id="Layer_1" xmlns="http://www.w3.org/2000/svg" xmlns:xlink="http://www.w3.org/1999/xlink" x="0px" y="0px"
	 viewBox="0 0 375.59 212.83" style="enable-background:new 0 0 375.59 212.83;" xml:space="preserve">
<style type="text/css">
	.st0{fill:#FA5002;}
</style>
<g>
	<g>
		<g>
			<g>
				<path class="st0" d="M190.85,63.25l-0.58-2.49l-0.34-1.46l3.6-11.26l-1.85-1.86l-5.37-5.42l-1.55-1.56l-0.05-0.05l-1.55,1.56
					l-7.27,7.33l3.59,11.26l-0.34,1.46l-0.57,2.49l-3.21,13.86l-0.04,0.19l4.83,37.36l0.44,3.42l4.12,31.89l4.12-31.88l0.44-3.43
					l4.8-37.16l0.03-0.2L190.85,63.25z M187.43,111.73l-0.44,3.43l-2.29,17.66l-2.29-17.68l-0.44-3.42l-4.44-34.32l2.85-12.33
					l0.59-2.52l0.77-3.35l-3.37-10.57l0.96-0.97l5.37-5.41l0.05,0.05l5.36,5.41l0.9,0.91l-3.37,10.57l0.78,3.35l0.58,2.52
					l2.86,12.33L187.43,111.73z"/>
			</g>
			<g>
				<g>
					
						<rect x="176.43" y="14.5" transform="matrix(0.7096 -0.7046 0.7046 0.7096 27.9684 134.8163)" class="st0" width="2.2" height="37.96"/>
				</g>
				<g>
					
						<rect x="173" y="32.38" transform="matrix(0.7044 -0.7098 0.7098 0.7044 32.983 146.1625)" class="st0" width="37.96" height="2.2"/>
				</g>
			</g>
			<g>
				<g>
					<circle class="st0" cx="164.33" cy="20.36" r="3.53"/>
				</g>
				<g>
					<circle class="st0" cx="205.18" cy="20.36" r="3.53"/>
				</g>
			</g>
			<g>
				<g>
					<path class="st0" d="M181.98,111.72l-1.84,2.93l-25.15,40.1h-10.8l-20.07-8.97l-1.08-0.48l-0.52-1.03l-8.44-16.69l6.12-30.03
						l33.3,14.66l2.14,0.93l0.16,0.08l6.76-10.46l-3.02-20.01l-33.41-6.94l-3.59-0.75l-0.29,1.41l-3.66,17.99l-27.97-12.3l-0.44-0.2
						l-0.79-3.02v-0.01l-11.7-44.36l-0.36-1.35l-0.48-0.82l-8.79-15.16l9.4-15.02h18.12l2.19,1.23h0.01l41.26,23.2l23.35,21.64
						l1.66,1.53l14.03,13l0.47,0.46l1.82,1.82l0.59-2.52l-1.36-1.35l-0.48-0.45l-38.69-35.82L96.16,0H76.25L65.5,17.18l9.76,16.75
						l13.09,49.61l29.81,13.11l-6.37,31.24l9.66,19.11l22.29,9.96h12.47l24.38-38.88l1.84-2.93L181.98,111.72z M124.27,77.65
						l33.34,6.94l2.67,17.66l-5.3,8.2l-34.32-15.1L124.27,77.65z"/>
				</g>
				<g>
					<polygon class="st0" points="90.32,83.1 88.24,82.39 104.99,32.9 94.82,1.44 96.91,0.76 107.3,32.91 					"/>
				</g>
				<g>
					<polygon class="st0" points="122.89,78.03 105.4,34.02 76.3,34.59 76.26,32.39 106.88,31.79 123.92,74.66 163.53,47.48 
						164.77,49.29 					"/>
				</g>
				<g>
					
						<rect x="114.96" y="127.89" transform="matrix(0.695 -0.719 0.719 0.695 -50.4059 139.1437)" class="st0" width="47.72" height="2.2"/>
				</g>
			</g>
			<g>
				<g>
					<path class="st0" d="M293.15,0h-19.9l-44.19,24.85l-38.8,35.91l-0.51,0.47l-1.33,1.33l0.58,2.52l1.84-1.82l0.44-0.44
						l14.07-13.02l1.65-1.53l23.36-21.64l41.26-23.2h0.01l2.19-1.23h18.12l9.4,15.02l-8.83,15.16l-0.4,0.68l-0.4,1.51L280,78.92
						l-0.8,3.03l-0.43,0.19L250.8,94.45l-3.66-17.99l-0.29-1.41l-3.59,0.75l-33.42,6.94l-3.02,20.01l6.77,10.46l0.16-0.08l2.14-0.93
						l33.3-14.66l6.12,30.03l-8.44,16.69l-0.52,1.03l-1.08,0.48l-20.07,8.97h-10.8l-25.15-40.1l-1.84-2.92l-0.44,3.43l1.84,2.92
						l24.38,38.87h12.47l22.29-9.96l9.66-19.11l-6.37-31.24l29.8-13.11l13.1-49.61l9.76-16.75L293.15,0z M214.42,110.45l-5.3-8.2
						l2.67-17.66l33.35-6.94l3.6,17.7L214.42,110.45z"/>
				</g>
				<g>
					<polygon class="st0" points="279.09,83.1 262.1,32.91 262.21,32.57 272.49,0.76 274.58,1.44 264.42,32.9 281.17,82.39 					"/>
				</g>
				<g>
					<polygon class="st0" points="246.51,78.03 204.63,49.29 205.87,47.48 245.48,74.66 262.52,31.79 293.15,32.39 293.11,34.59 
						264,34.02 					"/>
				</g>
				<g>
					
						<rect x="229.49" y="105.13" transform="matrix(0.7192 -0.6948 0.6948 0.7192 -24.8753 196.4285)" class="st0" width="2.2" height="47.72"/>
				</g>
			</g>
		</g>
	</g>
</g>
</svg>