<?xml version="1.0" encoding="utf-8"?>
<!-- Generator: Adobe Illustrator 23.0.2, SVG Export Plug-In . SVG Version: 6.00 Build 0)  -->
<svg version="1.1" id="Layer_1" xmlns="http://www.w3.org/2000/svg" xmlns:xlink="http://www.w3.org/1999/xlink" x="0px" y="0px"
	 viewBox="0 0 375.59 212.83" style="enable-background:new 0 0 375.59 212.83;" xml:space="preserve">
<style type="text/css">
	.st0{fill:#FA5002;}
</style>
<g>
	<g>
		<g>
			<g>
				<path class="st0" d="M190.85,63.25l-0.58-2.49l-0.34-1.46l3.6-11.26l-1.85-1.86l-5.37-5.42l-1.55-1.56l-0.05-0.05l-1.55,1.56
					l-7.27,7.33l3.59,11.26l-0.34,1.46l-0.57,2.49l-3.21,13.86l-0.04,0.19l4.83,37.36l0.44,3.42l4.12,31.89l4.12-31.88l0.44-3.43
					l4.8-37.16l0.03-0.2L190.85,63.25z M187.43,111.73l-0.44,3.43l-2.29,17.66l-2.29-17.68l-0.44-3.42l-4.44-34.32l2.85-12.33
					l0.59-2.52l0.77-3.35l-3.37-10.57l0.96-0.97l5.37-5.41l0.05,0.05l5.36,5.41l0.9,0.91l-3.37,10.57l0.78,3.35l0.58,2.52
					l2.86,12.33L187.43,111.73z"/>
			</g>
			<g>
				<g>
					
						<rect x="176.43" y="14.5" transform="matrix(0.7096 -0.7046 0.7046 0.7096 27.9684 134.8163)" class="st0" width="2.2" height="37.96"/>
				</g>
				<g>
					
						<rect x="173" y="32.38" transform="matrix(0.7044 -0.7098 0.7098 0.7044 32.983 146.1625)" class="st0" width="37.96" height="2.2"/>
				</g>
			</g>
			<g>
				<g>
					<circle class="st0" cx="164.33" cy="20.36" r="3.53"/>
				</g>
				<g>
					<circle class="st0" cx="205.18" cy="20.36" r="3.53"/>
				</g>
			</g>
			<g>
				<g>
					<path class="st0" d="M181.98,111.72l-1.84,2.93l-25.15,40.1h-10.8l-20.07-8.97l-1.08-0.48l-0.52-1.03l-8.44-16.69l6.12-30.03
						l33.3,14.66l2.14,0.93l0.16,0.08l6.76-10.46l-3.02-20.01l-33.41-6.94l-3.59-0.75l-0.29,1.41l-3.66,17.99l-27.97-12.3l-0.44-0.2
						l-0.79-3.02v-0.01l-11.7-44.36l-0.36-1.35l-0.48-0.82l-8.79-15.16l9.4-15.02h18.12l2.19,1.23h0.01l41.26,23.2l23.35,21.64
						l1.66,1.53l14.03,13l0.47,0.46l1.82,1.82l0.59-2.52l-1.36-1.35l-0.48-0.45l-38.69-35.82L96.16,0H76.25L65.5,17.18l9.76,16.75
						l13.09,49.61l29.81,13.11l-6.37,31.24l9.66,19.11l22.29,9.96h12.47l24.38-38.88l1.84-2.93L181.98,111.72z M124.27,77.65
						l33.34,6.94l2.67,17.66l-5.3,8.2l-34.32-15.1L124.27,77.65z"/>
				</g>
				<g>
					<polygon class="st0" points="90.32,83.1 88.24,82.39 104.99,32.9 94.82,1.44 96.91,0.76 107.3,32.91 					"/>
				</g>
				<g>
					<polygon class="st0" points="122.89,78.03 105.4,34.02 76.3,34.59 76.26,32.39 106.88,31.79 123.92,74.66 163.53,47.48 
						164.77,49.29 					"/>
				</g>
				<g>
					
						<rect x="114.96" y="127.89" transform="matrix(0.695 -0.719 0.719 0.695 -50.4059 139.1437)" class="st0" width="47.72" height="2.2"/>
				</g>
			</g>
			<g>
				<g>
					<path class="st0" d="M293.15,0h-19.9l-44.19,24.85l-38.8,35.91l-0.51,0.47l-1.33,1.33l0.58,2.52l1.84-1.82l0.44-0.44
						l14.07-13.02l1.65-1.53l23.36-21.64l41.26-23.2h0.01l2.19-1.23h18.12l9.4,15.02l-8.83,15.16l-0.4,0.68l-0.4,1.51L280,78.92
						l-0.8,3.03l-0.43,0.19L250.8,94.45l-3.66-17.99l-0.29-1.41l-3.59,0.75l-33.42,6.94l-3.02,20.01l6.77,10.46l0.16-0.08l2.14-0.93
						l33.3-14.66l6.12,30.03l-8.44,16.69l-0.52,1.03l-1.08,0.48l-20.07,8.97h-10.8l-25.15-40.1l-1.84-2.92l-0.44,3.43l1.84,2.92
						l24.38,38.87h12.47l22.29-9.96l9.66-19.11l-6.37-31.24l29.8-13.11l13.1-49.61l9.76-16.75L293.15,0z M214.42,110.45l-5.3-8.2
						l2.67-17.66l33.35-6.94l3.6,17.7L214.42,110.45z"/>
				</g>
				<g>
					<polygon class="st0" points="279.09,83.1 262.1,32.91 262.21,32.57 272.49,0.76 274.58,1.44 264.42,32.9 281.17,82.39 					"/>
				</g>
				<g>
					<polygon class="st0" points="246.51,78.03 204.63,49.29 205.87,47.48 245.48,74.66 262.52,31.79 293.15,32.39 293.11,34.59 
						264,34.02 					"/>
				</g>
				<g>
					
						<rect x="229.49" y="105.13" transform="matrix(0.7192 -0.6948 0.6948 0.7192 -24.8753 196.4285)" class="st0" width="2.2" height="47.72"/>
				</g>
			</g>
		</g>
	</g>
	<g>
		<g>
			<path class="st0" d="M31.29,178.84c-0.36-0.32-0.78-0.48-1.25-0.48c-0.71,0-1.27,0.31-1.56,0.85l-12.55,20.18L3.4,179.25
				c-0.31-0.57-0.85-0.88-1.53-0.88c-0.5,0-0.94,0.16-1.29,0.48C0.2,179.17,0,179.62,0,180.14v32.21h3v-27.96l12.93,20.73
				l12.94-20.73v27.96h3v-32.21C31.86,179.62,31.66,179.17,31.29,178.84L31.29,178.84z"/>
			<path class="st0" d="M90.13,183.31c-1.57-1.52-3.43-2.73-5.53-3.6c-2.1-0.87-4.4-1.3-6.81-1.3c-2.35,0-4.61,0.43-6.72,1.28
				c-2.1,0.85-3.97,2.05-5.55,3.55c-1.59,1.51-2.86,3.33-3.78,5.4c-0.93,2.08-1.4,4.36-1.4,6.78c0,2.36,0.46,4.62,1.37,6.73
				c0.91,2.1,2.17,3.96,3.73,5.53c1.57,1.57,3.44,2.82,5.55,3.73c2.12,0.91,4.41,1.37,6.79,1.37c2.39,0,4.66-0.45,6.77-1.35
				c2.1-0.89,3.97-2.13,5.55-3.69c1.58-1.55,2.85-3.41,3.76-5.51c0.91-2.11,1.37-4.4,1.37-6.82c0-2.39-0.46-4.65-1.38-6.71
				C92.96,186.65,91.7,184.83,90.13,183.31z M77.79,210.05c-1.96,0-3.84-0.39-5.59-1.16c-1.76-0.77-3.32-1.84-4.63-3.17
				c-1.32-1.33-2.37-2.89-3.13-4.65c-0.76-1.75-1.14-3.65-1.14-5.64c0-1.99,0.38-3.87,1.12-5.6c0.75-1.73,1.79-3.25,3.1-4.51
				c1.31-1.27,2.87-2.29,4.63-3.02c1.75-0.73,3.65-1.1,5.65-1.1c1.99,0,3.89,0.36,5.63,1.08c1.74,0.72,3.28,1.73,4.58,3
				c1.3,1.27,2.34,2.79,3.1,4.52c0.76,1.72,1.14,3.62,1.14,5.64c0,1.99-0.37,3.89-1.1,5.65c-0.73,1.76-1.77,3.32-3.07,4.65
				c-1.3,1.33-2.84,2.39-4.59,3.17C81.76,209.66,79.84,210.05,77.79,210.05z"/>
			<path class="st0" d="M147.51,207.91l-22.04-28.79c-0.92-0.99-2.23-0.94-2.97-0.25c-0.37,0.35-0.56,0.82-0.56,1.4v32.08h3v-28.91
				l22.05,28.58c0.4,0.52,0.95,0.8,1.57,0.8c0.53,0,0.99-0.17,1.47-0.58c0.32-0.4,0.48-0.85,0.48-1.33v-31.91h-3V207.91z"/>
			<path class="st0" d="M193.67,178.7L193.67,178.7c-0.27-0.22-0.64-0.33-1.1-0.33c-0.5,0-1.21,0.2-1.73,1.19l-14.02,31.95
				l-0.38,0.85h3.33l5.86-13.24h13.75l5.77,13.24h3.37l-14.23-32.83C194.1,179.15,193.9,178.88,193.67,178.7z M198.24,196.42h-11.43
				l5.75-13.07L198.24,196.42z"/>
			<path class="st0" d="M254.63,198.58c1.16-0.52,2.19-1.22,3.06-2.07c0.88-0.86,1.58-1.89,2.09-3.06c0.51-1.17,0.77-2.47,0.77-3.84
				c0-1.44-0.28-2.82-0.83-4.1c-0.55-1.28-1.31-2.42-2.28-3.38c-0.96-0.96-2.1-1.73-3.38-2.28c-1.29-0.55-2.68-0.83-4.15-0.83
				h-13.59c-0.5,0-0.94,0.16-1.29,0.48c-0.38,0.33-0.57,0.78-0.57,1.3v31.56h3v-12.76h11.15l9.12,12.76h3.54l-9.31-12.95
				C252.89,199.24,253.79,198.96,254.63,198.58z M255.28,194.66L255.28,194.66c-0.69,0.61-1.51,1.1-2.44,1.45
				c-0.92,0.35-1.91,0.53-2.93,0.53h-12.46v-14.67h12.46c1.04,0,2.02,0.2,2.92,0.6c0.91,0.4,1.72,0.96,2.42,1.65
				c0.69,0.69,1.25,1.51,1.65,2.44c0.4,0.92,0.6,1.91,0.6,2.95c0,1.03-0.2,1.99-0.59,2.85
				C256.52,193.32,255.97,194.06,255.28,194.66z"/>
			<path class="st0" d="M317.13,204.12c-1.35,2.03-3.09,3.54-5.19,4.47c-2.12,0.94-4.41,1.42-6.81,1.42c-1.96,0-3.84-0.38-5.6-1.14
				c-1.76-0.76-3.31-1.82-4.63-3.15c-1.32-1.33-2.38-2.9-3.15-4.66c-0.77-1.75-1.16-3.65-1.16-5.64c0-1.99,0.38-3.87,1.14-5.57
				c0.76-1.71,1.81-3.22,3.12-4.47c1.31-1.26,2.87-2.27,4.63-3c1.76-0.73,3.65-1.1,5.65-1.1c2.21,0,4.28,0.46,6.16,1.37
				c1.88,0.91,3.55,2.25,4.96,3.96l0.39,0.47l2.24-1.87l-0.4-0.47c-1.7-1.99-3.71-3.56-5.97-4.65c-2.27-1.09-4.76-1.64-7.38-1.64
				c-2.35,0-4.61,0.43-6.72,1.28c-2.1,0.85-3.97,2.04-5.55,3.53c-1.59,1.5-2.87,3.3-3.8,5.38c-0.94,2.08-1.42,4.36-1.42,6.78
				c0,2.36,0.46,4.63,1.37,6.73c0.91,2.1,2.17,3.96,3.76,5.53c1.58,1.57,3.45,2.83,5.57,3.75c2.12,0.93,4.41,1.4,6.8,1.4
				c2.79,0,5.49-0.57,8.02-1.68c2.55-1.13,4.68-2.91,6.33-5.31l0.32-0.47l-2.32-1.79L317.13,204.12z"/>
			<polygon class="st0" points="372.59,179.01 372.59,194.21 349.72,194.21 349.72,179.01 346.72,179.01 346.72,212.35 
				349.72,212.35 349.72,197.16 372.59,197.16 372.59,212.35 375.59,212.35 375.59,179.01 			"/>
		</g>
	</g>
</g>
</svg>